<svg xmlns="http://www.w3.org/2000/svg" version="1.1" xmlns:xlink="http://www.w3.org/1999/xlink" xmlns:svgjs="http://svgjs.com/svgjs" width="1280" height="1280"><svg version="1.1" viewBox="0 0 2048 1218" width="1280" height="1280" xmlns="http://www.w3.org/2000/svg">
<path transform="translate(0)" d="m0 0h2048v1218h-2048z" fill="#CACACA"></path>
<path transform="translate(1010,433)" d="m0 0h21l16 3 13 4 17 9 13 11 8 8 9 12 8 15 5 17 2 14v15l-2 14-5 17-10 19-9 10-5 6-11 9-10 6-10 5-20 6-8 1h-22l-12-2-16-5-15-8-14-11-7-7-8-10-9-16-4-10-4-19-1-14 2-18 6-20 10-18 11-13 11-10 11-7 14-7 18-5z" fill="#FEFEFE"></path>
<path transform="translate(1015,638)" d="m0 0h13l18 3 16 5 16 9 14 12 10 11 7 11 6 12 5 17 2 14v14l-2 15-7 21-8 14-13 15-9 8-9 6-16 8-13 4-21 3-17-1-17-4-13-5-15-9-15-14-8-9-10-17-5-15-3-14-1-15 2-18 6-20 10-18 8-9 6-7 14-11 17-9 17-5z" fill="#FEFEFE"></path>
<path transform="translate(343,531)" d="m0 0h474l27 27 7 8 10 10 5 4 6 7 5 5 3 2v2l3 1v2l4 2 1 3 3 1v2h2l3 3v2l3 1v2h2l7 8 12 11-1 5-102 102h-475v-4l35-1 440-1 6-7 5-4 1-2h2l2-4 4-4h2l1-3h2v-2l3-3h2l1-3 5-5h2l1-3 7-6 4-5h2l1-3h2l2-4 7-7h2v-2l8-7 8-8 1-2h2l2-4 6-5 2-3-467-1v-4l467-1-61-61-5-4-7-8-23-23-473-1-1-4z" fill="#050505"></path>
<path transform="translate(1227,531)" d="m0 0h453l1 3-1 2-453 1-8 7-89 89 385 1 1 4h-386l7 8 89 89 4 1h449l2 1-1 4h-455l-103-103 1-4 100-100 1-2z" fill="#050505"></path>
<path transform="translate(1013,429)" d="m0 0h15l16 2 17 5 17 9 10 8 12 11 10 13 8 15 5 15 2 10v32l-3 15-8 20-9 13-12 13-15 12-15 8-13 5-4 1 21 8 15 9 11 10 7 6 10 13 8 16 4 10 3 14 1 22-2 18-7 21-8 14-9 11-11 11-17 12-18 8-13 3-8 1h-26l-18-4-13-5-14-8-13-11-8-8-10-14-8-16-4-13-2-13v-25l3-17 5-13 9-16 9-11 11-11 11-8 10-6 21-8-17-6-15-8-10-8-10-9-11-14-6-10-7-18-3-17v-25l3-18 6-15 8-13 8-10 7-8 14-11 14-8 16-6 10-2zm-3 4-15 3-15 5-16 9-13 11-9 10-6 8-9 17-5 18-2 20 2 18 5 19 9 17 7 9 11 12 13 10 17 9 18 5 8 1h22l12-2 21-7 14-8 10-9 6-5 9-11 9-16 4-10 4-16 1-9v-15l-3-18-5-15-9-16-11-13-8-8-12-9-16-8-19-5-8-1zm5 205-15 2-17 5-17 9-10 8-9 8-8 10-6 10-6 12-5 17-2 18 2 21 6 21 9 16 9 11 10 10 12 9 16 8 17 5 18 2 15-1 18-4 13-5 14-8 13-11 10-11 7-11 6-12 5-16 2-15v-14l-3-18-6-18-8-14-13-15-10-9-11-7-14-7-21-5-8-1z" fill="#050505"></path>
<path transform="translate(2045)" d="m0 0h3v1218h-3z" fill="#050505"></path>
</svg><style>@media (prefers-color-scheme: light) { :root { filter: none; } }
@media (prefers-color-scheme: dark) { :root { filter: invert(100%); } }
</style></svg>